<svg xmlns="http://www.w3.org/2000/svg" viewBox="0 0 32 32">
  <defs>
    <linearGradient id="bg" x1="0" y1="0" x2="1" y2="1">
      <stop offset="0%" stop-color="#0C0C14"/>
      <stop offset="100%" stop-color="#050508"/>
    </linearGradient>
    <radialGradient id="accentGlow" cx="0.8" cy="0.85" r="0.6">
      <stop offset="0%" stop-color="#2563EB" stop-opacity="0.35"/>
      <stop offset="100%" stop-color="#2563EB" stop-opacity="0"/>
    </radialGradient>
  </defs>

  <rect width="32" height="32" rx="7" fill="url(#bg)"/>
  <rect width="32" height="32" rx="7" fill="url(#accentGlow)"/>
  <rect x="0.5" y="0.5" width="31" height="31" rx="6.5" fill="none" stroke="rgba(255,255,255,0.08)" stroke-width="1"/>

  <!-- J -->
  <path d="M3.5 9 H13.5 V11.5 H10.5 V19 C10.5 21.5 9 23 6.5 23 C4 23 2.5 21.5 2.5 19 V18 H5 V19 C5 20.5 5.5 21 6.5 21 C7.5 21 8 20.5 8 19 V11.5 H3.5 Z" fill="#FFFFFF"/>

  <!-- K -->
  <path d="M15 9 H17.5 V15 L22.2 9 H25 L20.3 15.5 L25.5 23 H22.8 L18.8 17 L17.5 18.5 V23 H15 Z" fill="#FFFFFF"/>

  <!-- Accent dot -->
  <circle cx="28" cy="22" r="1.6" fill="#2563EB"/>
</svg>
